<?xml version="1.0" encoding="iso-8859-1"?>
<!-- Generator: Adobe Illustrator 16.0.0, SVG Export Plug-In . SVG Version: 6.00 Build 0)  -->
<!DOCTYPE svg PUBLIC "-//W3C//DTD SVG 1.1//EN" "http://www.w3.org/Graphics/SVG/1.1/DTD/svg11.dtd">
<svg version="1.1" id="Capa_1" xmlns="http://www.w3.org/2000/svg" xmlns:xlink="http://www.w3.org/1999/xlink" x="0px" y="0px"
	 width="241.367px" height="241.367px" viewBox="0 0 241.367 241.367" style="enable-background:new 0 0 241.367 241.367;"
	 xml:space="preserve">
<g>
	<path d="M119.008,162.598c23.957,0,43.375-19.412,43.375-43.371c0-23.957-19.418-43.375-43.375-43.375
		c-23.962,0-43.38,19.418-43.38,43.375C75.628,143.186,95.052,162.598,119.008,162.598z M119.008,98.604
		c11.39,0,20.622,9.237,20.622,20.622c0,11.387-9.232,20.619-20.622,20.619c-11.389,0-20.622-9.223-20.622-20.619
		C98.394,107.847,107.625,98.604,119.008,98.604z"/>
	<path d="M119.008,193.631c41.029,0,74.407-33.379,74.407-74.404c0-41.026-33.378-74.405-74.407-74.405
		c-41.023,0-74.402,33.378-74.402,74.405C44.606,160.252,77.985,193.631,119.008,193.631z M119.008,60.957
		c32.133,0,58.272,26.146,58.272,58.27c0,32.13-26.145,58.269-58.272,58.269c-32.127,0-58.267-26.139-58.267-58.269
		C60.742,87.104,86.881,60.957,119.008,60.957z"/>
	<circle cx="46.626" cy="55.803" r="10.733"/>
	<circle cx="46.626" cy="179.51" r="10.734"/>
	<path d="M190.5,45.078c5.929,0,10.724,4.803,10.724,10.727s-4.795,10.727-10.724,10.727c-5.924,0-10.725-4.803-10.725-10.727
		S184.577,45.078,190.5,45.078z"/>
	<circle cx="190.5" cy="179.51" r="10.734"/>
	<path d="M0.002,53.782v133.79c0,29.717,24.083,53.795,53.793,53.795h133.789c29.702,0,53.78-24.078,53.78-53.795V53.782
		C241.365,24.078,217.287,0,187.584,0H53.795C24.085,0.008,0.002,24.083,0.002,53.782z M30.931,56.478
		c0-9.279,7.524-16.808,16.808-16.808c6.475,0,12.078,3.664,14.89,9.028c15.457-12.375,35.043-19.788,56.385-19.788
		c21.332,0,40.925,7.413,56.376,19.778c2.802-5.359,8.415-9.018,14.888-9.018c9.284,0,16.803,7.529,16.803,16.808
		c0,7.216-4.552,13.357-10.941,15.736c8.368,13.696,13.194,29.79,13.194,47.013c0,16.187-4.283,31.358-11.734,44.506
		c5.613,2.724,9.481,8.461,9.481,15.109c0,9.289-7.519,16.809-16.803,16.809c-5.588,0-10.522-2.734-13.588-6.929
		c-15.638,12.992-35.744,20.826-57.676,20.826c-21.935,0-42.042-7.834-57.689-20.837c-3.055,4.205-7.995,6.939-13.585,6.939
		c-9.284,0-16.808-7.52-16.808-16.809c0-6.648,3.876-12.396,9.497-15.109c-7.451-13.147-11.729-28.319-11.729-44.506
		c0-17.223,4.818-33.316,13.181-47.007C35.491,69.84,30.931,63.693,30.931,56.478z"/>
</g>
<g>
</g>
<g>
</g>
<g>
</g>
<g>
</g>
<g>
</g>
<g>
</g>
<g>
</g>
<g>
</g>
<g>
</g>
<g>
</g>
<g>
</g>
<g>
</g>
<g>
</g>
<g>
</g>
<g>
</g>
</svg>
