<?xml version="1.0" encoding="iso-8859-1"?>
<!-- Generator: Adobe Illustrator 17.1.0, SVG Export Plug-In . SVG Version: 6.00 Build 0)  -->
<!DOCTYPE svg PUBLIC "-//W3C//DTD SVG 1.1//EN" "http://www.w3.org/Graphics/SVG/1.1/DTD/svg11.dtd">
<svg version="1.1" id="Capa_1" xmlns="http://www.w3.org/2000/svg" xmlns:xlink="http://www.w3.org/1999/xlink" x="0px" y="0px"
	 viewBox="0 0 551.281 551.281" style="enable-background:new 0 0 551.281 551.281;" xml:space="preserve">
<g>
	<path d="M359.325,416.203c-1.694-2.647-1.867-7.255-0.432-11.466c3.458-10.146,11.664-34.996,12.655-38
		c6.764-16.066-4.928-26.92-11.899-31.347c-6.991-4.441-15.756-3.366-21.775,2.515c-2.174,1.097-9.752,4.391-22.315,4.391
		c-9.58,0-20.013-15.777-23.35-23.334l-4.406-213.876l0.168-4.704c0.197-5.511,3.854-10.349,9.103-12.039
		c3.33-1.072,5.477-4.306,5.172-7.791l-2.763-31.654c3.995-1.37,7.629-3.736,10.511-6.926c4.727-5.23,7.044-12.276,6.358-19.331
		c-1.283-13.193-12.675-23.159-25.902-22.619c-14.288,0.547-20.958,14.1-23.15,18.553c-7.586,15.411-22.369,68.595-22.995,70.851
		c-0.629,2.271-0.155,4.705,1.28,6.573l8.847,11.515l-4.214,204.543c-1.928,5.954-7.748,17.715-23.66,18.071
		c-2.383,0.039-4.765-1.011-6.876-3.075c-4.87-4.762-7.663-14.051-7.663-25.483c0-6.982-3.525-13.16-9.429-16.525
		c-6.253-3.563-14.069-3.448-20.397,0.299c-4.529,2.684-12.087,9.529-11.823,25.236c0.389,23.177,15.187,82.909,19.021,94.159
		c1.436,4.211,1.262,8.818-0.432,11.465c-2.667,4.166-5.241,7.741-7.731,11.198c-9.318,12.937-17.366,24.108-15.277,48.791
		c3.271,38.671,32.271,62.83,86.194,71.808c13.158,2.19,25.791,3.282,37.651,3.282c15.058-0.001,28.869-1.761,40.915-5.269
		c23.088-6.722,44.712-19.527,51.181-37.031C395.366,472.514,369.182,431.603,359.325,416.203z M280.756,25.199
		c4.331-8.798,7.62-10.088,10.268-10.189c5.208-0.204,9.891,3.873,10.397,9.082c0.283,2.907-0.625,5.686-2.558,7.823
		c-1.937,2.143-4.592,3.33-7.477,3.342c-2.097,0.009-4.095,0.896-5.508,2.444s-2.114,3.619-1.932,5.708l2.897,33.186
		c-7.499,4.422-12.639,12.167-13.684,20.938h-7.48l-5.914-7.698C264.605,72.664,275.384,36.112,280.756,25.199z M277.686,342.294
		h-13.09l4.733-229.762h3.623L277.686,342.294z M367.82,503.782c-9.998,27.05-58.08,38.6-113.214,29.42
		c-46.944-7.815-71.055-26.877-73.71-58.274c-1.62-19.154,3.695-26.534,12.502-38.761c2.487-3.452,5.306-7.366,8.194-11.88
		c4.212-6.582,4.958-15.699,1.996-24.39c-3.447-10.111-17.871-68.652-18.222-89.571c-0.1-5.934,1.53-10.336,4.47-12.078
		c1.676-0.993,3.766-1.063,5.325-0.173c1.249,0.712,1.856,1.854,1.856,3.493c0,15.671,4.324,28.53,12.175,36.208
		c4.992,4.882,11.269,7.507,17.699,7.347c9.835-0.22,17.239-3.24,22.794-7.33l-0.224,10.887c-1.096,1.378-5.221,4.73-11.013,2.38
		c-6.413-2.602-19.605-8.379-26.395,6.05c-3.955,8.403,0.145,14.402,5.077,22.139c6.953,10.906,11.082,18.758,5.362,28.16
		c-14.623,24.037-11.99,44.271-3.356,52.899c7.697,7.69,18.723,11.942,33.709,12.999c0.18,0.013,0.358,0.019,0.536,0.019
		c3.901,0,7.195-3.021,7.474-6.973c0.292-4.132-2.822-7.718-6.954-8.009c-11.228-0.792-19.131-3.62-24.162-8.647
		c-3.003-3.001-5.771-15.853,5.569-34.493c11.003-18.086,1.054-33.692-5.529-44.019c-2.058-3.228-4.152-6.082-4.106-7.786
		c0.192-0.396,0.354-0.654,0.467-0.813c1.36,0.107,4.486,1.443,6.415,2.268c4.124,1.762,7.798,1.76,12.958,1.938
		c8.224,0.293,13.327-5.686,16.257-9.498h19.808c9.004,13.27,17.246,24.243,30.982,24.243c6.429,0,11.596-1.146,15.923-2.665
		c-1.176,2.723-2.45,5.273-3.626,7.629c-1.626,3.256-3.162,6.331-4.175,9.303c-2.803,8.225-2.49,17.351,0.717,26.073h-20.507
		c-3.646,0-6.764,2.622-7.389,6.214l-5.812,33.383c-0.783-0.09-1.68-0.183-4.111-0.417c-4.125-0.388-7.787,2.626-8.183,6.749
		c-0.396,4.123,2.626,7.786,6.749,8.183c3.064,0.294,3.5,0.346,4.614,0.48l1.277,0.152c1.391,0.163,2.588,0.411,3.659,0.734
		c0.034,0.01,0.068,0.02,0.103,0.03c5.355,1.659,7.141,5.469,9.987,12.524c2.67,6.621,5.993,14.86,14.963,19.938
		c5.131,2.903,10.483,4.36,15.67,4.36c4.717,0,9.297-1.205,13.443-3.623c8.646-5.041,13.808-14.399,13.808-25.032
		c0-18.558-6.676-39.15-19.305-59.727c-0.137-0.255-0.292-0.499-0.457-0.736c-0.424-0.683-0.835-1.366-1.272-2.048
		c-4.653-7.271-6.058-15.646-3.756-22.4c0.686-2.013,1.942-4.526,3.396-7.438c2.117-4.239,4.517-9.043,6.435-14.755
		c1.713-5.104,0.362-10.581-3.441-13.955c-3.601-3.194-8.647-3.844-13.167-1.699c-4.094,1.943-8.811,3.742-15.542,3.742
		c-6.194,0-11.611-7.373-19.769-19.442l-0.021-1.004c6.017,6.183,13.695,11.204,22.791,11.204c8.243,0,16.615-1.105,24.378-3.963
		c2.804-1.032,5.577-2.136,7.81-4.158c0.729-0.66,1.574-1.294,2.555-1.353c2.403-0.144,5.219,2.97,6.454,4.792
		c1.743,2.571,2.108,5.644,0.875,8.519c-0.085,0.199-0.162,0.402-0.23,0.608c-0.09,0.273-9.065,27.474-12.707,38.157
		c-2.961,8.69-2.216,17.808,1.996,24.39C360.436,445.763,377.581,477.369,367.82,503.782z M329.494,436.877
		c9.935,17.095,15.173,33.814,15.173,48.676c0,5.237-2.379,9.751-6.363,12.074c-4.033,2.352-9.065,2.057-14.169-0.834
		c-4.195-2.374-5.94-6.294-8.44-12.493c-2.476-6.141-5.607-13.887-13.515-18.611l5.017-28.812H329.494z"/>
	<path d="M319.019,464.732c1.98,0,3.91-0.8,5.3-2.2c1.4-1.4,2.2-3.33,2.2-5.3c0-1.98-0.8-3.91-2.2-5.311
		c-1.39-1.39-3.32-2.189-5.3-2.189c-1.97,0-3.91,0.8-5.3,2.189c-1.4,1.4-2.2,3.33-2.2,5.311c0,1.97,0.8,3.899,2.2,5.3
		C315.109,463.932,317.049,464.732,319.019,464.732z"/>
	<path d="M256.94,401.536h24.429c4.142,0,7.5-3.357,7.5-7.5s-3.358-7.5-7.5-7.5H256.94c-4.142,0-7.5,3.357-7.5,7.5
		S252.798,401.536,256.94,401.536z"/>
	<path d="M321.849,477.232c0,1.97,0.8,3.899,2.2,5.3c1.39,1.4,3.33,2.2,5.3,2.2c1.98,0,3.91-0.8,5.31-2.2
		c1.39-1.39,2.19-3.33,2.19-5.3c0-1.98-0.8-3.91-2.19-5.311c-1.4-1.39-3.33-2.189-5.31-2.189c-1.97,0-3.9,0.8-5.3,2.189
		C322.649,473.322,321.849,475.251,321.849,477.232z"/>
	<path d="M288.869,438.711c0-4.143-3.358-7.5-7.5-7.5H256.94c-4.142,0-7.5,3.357-7.5,7.5s3.358,7.5,7.5,7.5h24.429
		C285.511,446.211,288.869,442.854,288.869,438.711z"/>
</g>
<g>
</g>
<g>
</g>
<g>
</g>
<g>
</g>
<g>
</g>
<g>
</g>
<g>
</g>
<g>
</g>
<g>
</g>
<g>
</g>
<g>
</g>
<g>
</g>
<g>
</g>
<g>
</g>
<g>
</g>
</svg>
