<?xml version="1.0" encoding="iso-8859-1"?>
<!-- Generator: Adobe Illustrator 17.1.0, SVG Export Plug-In . SVG Version: 6.00 Build 0)  -->
<!DOCTYPE svg PUBLIC "-//W3C//DTD SVG 1.1//EN" "http://www.w3.org/Graphics/SVG/1.1/DTD/svg11.dtd">
<svg version="1.1" id="Capa_1" xmlns="http://www.w3.org/2000/svg" xmlns:xlink="http://www.w3.org/1999/xlink" x="0px" y="0px"
	 viewBox="0 0 550.651 550.651" style="enable-background:new 0 0 550.651 550.651;" xml:space="preserve">
<path d="M543.151,139.493H7.5c-4.142,0-7.5,3.357-7.5,7.5v256.666c0,4.143,3.358,7.5,7.5,7.5h535.651c4.142,0,7.5-3.357,7.5-7.5
	V146.993C550.651,142.85,547.293,139.493,543.151,139.493z M535.651,154.493V362.68H524.33V247.427c0-4.143-3.358-7.5-7.5-7.5
	H33.821c-4.142,0-7.5,3.357-7.5,7.5V362.68H15V154.493H535.651z M439.057,362.68V254.927h18.478v59.456c0,4.143,3.358,7.5,7.5,7.5
	h3.66v40.797H439.057z M394.419,362.68v-40.797h3.66c4.142,0,7.5-3.357,7.5-7.5v-59.456h18.478V362.68H394.419z M349.782,362.68
	v-40.797h3.66c4.142,0,7.5-3.357,7.5-7.5v-59.456h7.319v59.456c0,4.143,3.358,7.5,7.5,7.5h3.659v40.797H349.782z M305.145,362.68
	v-40.797h3.659c4.142,0,7.5-3.357,7.5-7.5v-59.456h7.319v59.456c0,4.143,3.358,7.5,7.5,7.5h3.659v40.797H305.145z M260.507,362.68
	V254.927h18.478v59.456c0,4.143,3.358,7.5,7.5,7.5h3.66v40.797H260.507z M215.869,362.68v-40.797h3.659c4.142,0,7.5-3.357,7.5-7.5
	v-59.456h18.479V362.68H215.869z M171.231,362.68v-40.797h3.66c4.142,0,7.5-3.357,7.5-7.5v-59.456h7.319v59.456
	c0,4.143,3.358,7.5,7.5,7.5h3.659v40.797H171.231z M126.594,362.68V254.927h18.479v59.456c0,4.143,3.358,7.5,7.5,7.5h3.659v40.797
	H126.594z M81.957,362.68v-40.797h3.659c4.142,0,7.5-3.357,7.5-7.5v-59.456h18.478V362.68H81.957z M41.321,362.68V254.927h14.476
	v59.456c0,4.143,3.358,7.5,7.5,7.5h3.66v40.797H41.321z M15,396.159V377.68h472.354c4.142,0,7.5-3.357,7.5-7.5s-3.358-7.5-7.5-7.5
	h-3.66v-40.797h3.659c4.142,0,7.5-3.357,7.5-7.5v-59.456h14.476v108.228c-2.855,1.06-4.894,3.801-4.894,7.025
	c0,4.143,3.358,7.5,7.5,7.5h23.715v18.479H15z M226.728,216.98c4.142,0,7.5,3.357,7.5,7.5s-3.358,7.5-7.5,7.5h-9.72
	c-4.142,0-7.5-3.357-7.5-7.5s3.358-7.5,7.5-7.5H226.728z M341.143,224.48c0,4.143-3.358,7.5-7.5,7.5h-68.037
	c-4.142,0-7.5-3.357-7.5-7.5s3.358-7.5,7.5-7.5h68.037C337.785,216.98,341.143,220.337,341.143,224.48z M33.478,221.673v3.435
	c0,4.143,3.358,7.5,7.5,7.5h133.913c4.142,0,7.5-3.357,7.5-7.5v-53.657c0-0.029,0-0.058,0-0.087v-2.053c0-4.143-3.358-7.5-7.5-7.5
	H40.978c-4.142,0-7.5,3.357-7.5,7.5v52.275C33.478,221.615,33.478,221.644,33.478,221.673z M117.04,176.811l-40.797,40.797H55.604
	l40.796-40.797H117.04z M158.883,176.811l-40.797,40.797H97.457l40.797-40.797H158.883z M139.3,217.608l28.091-28.091v28.091H139.3z
	 M75.187,176.811l-26.709,26.709v-26.709H75.187z M368.26,221.683v3.425c0,4.143,3.358,7.5,7.5,7.5h133.913
	c4.142,0,7.5-3.357,7.5-7.5v-53.646c0-0.036,0-0.072,0-0.107v-2.043c0-4.143-3.358-7.5-7.5-7.5H375.76c-4.142,0-7.5,3.357-7.5,7.5
	v52.265C368.26,221.612,368.26,221.647,368.26,221.683z M451.822,176.811l-40.797,40.797h-20.64l40.796-40.797H451.822z
	 M493.665,176.811l-40.797,40.797H432.24l40.797-40.797H493.665z M474.082,217.608l28.091-28.091v28.091H474.082z M409.969,176.811
	L383.26,203.52v-26.709H409.969z M208.369,206.975c10.77,0,19.532-8.763,19.532-19.533s-8.762-19.532-19.532-19.532
	s-19.532,8.762-19.532,19.532S197.599,206.975,208.369,206.975z M208.369,182.91c2.499,0,4.532,2.033,4.532,4.532
	c0,2.5-2.033,4.533-4.532,4.533s-4.532-2.033-4.532-4.533C203.837,184.943,205.87,182.91,208.369,182.91z M253.007,206.975
	c10.77,0,19.532-8.763,19.532-19.533s-8.762-19.532-19.532-19.532c-10.771,0-19.533,8.762-19.533,19.532
	S242.236,206.975,253.007,206.975z M253.007,182.91c2.499,0,4.532,2.033,4.532,4.532c0,2.5-2.033,4.533-4.532,4.533
	c-2.5,0-4.533-2.033-4.533-4.533C248.474,184.943,250.507,182.91,253.007,182.91z M297.645,206.975
	c10.77,0,19.532-8.763,19.532-19.533s-8.762-19.532-19.532-19.532c-10.771,0-19.533,8.762-19.533,19.532
	S286.874,206.975,297.645,206.975z M297.645,182.91c2.499,0,4.532,2.033,4.532,4.532c0,2.5-2.033,4.533-4.532,4.533
	c-2.5,0-4.533-2.033-4.533-4.533C293.112,184.943,295.145,182.91,297.645,182.91z M342.282,206.975
	c10.771,0,19.533-8.763,19.533-19.533s-8.762-19.532-19.533-19.532c-10.77,0-19.532,8.762-19.532,19.532
	S331.512,206.975,342.282,206.975z M342.282,182.91c2.5,0,4.533,2.033,4.533,4.532c0,2.5-2.033,4.533-4.533,4.533
	c-2.499,0-4.532-2.033-4.532-4.533C337.75,184.943,339.783,182.91,342.282,182.91z"/>
<g>
</g>
<g>
</g>
<g>
</g>
<g>
</g>
<g>
</g>
<g>
</g>
<g>
</g>
<g>
</g>
<g>
</g>
<g>
</g>
<g>
</g>
<g>
</g>
<g>
</g>
<g>
</g>
<g>
</g>
</svg>
