<?xml version="1.0" encoding="iso-8859-1"?>
<!-- Generator: Adobe Illustrator 17.1.0, SVG Export Plug-In . SVG Version: 6.00 Build 0)  -->
<!DOCTYPE svg PUBLIC "-//W3C//DTD SVG 1.1//EN" "http://www.w3.org/Graphics/SVG/1.1/DTD/svg11.dtd">
<svg version="1.1" id="Capa_1" xmlns="http://www.w3.org/2000/svg" xmlns:xlink="http://www.w3.org/1999/xlink" x="0px" y="0px"
	 viewBox="0 0 202.479 202.479" style="enable-background:new 0 0 202.479 202.479;" xml:space="preserve">
<path d="M188.739,173.24H13.74C6.164,173.24,0,167.076,0,159.5V42.98c0-7.576,6.164-13.74,13.74-13.74h165.161h0l0,0h9.838
	c7.576,0,13.74,6.164,13.74,13.74V159.5C202.479,167.076,196.315,173.24,188.739,173.24z M169.399,169.24h19.34
	c5.371,0,9.74-4.37,9.74-9.74V42.98c0-5.371-4.37-9.74-9.74-9.74h-7.838v71.556c0,4.261-3.467,7.728-7.728,7.728h-3.774V169.24z
	 M136.32,169.24h29.08v-56.717h-3.774c-4.261,0-7.728-3.467-7.728-7.728V33.24H136.32V169.24z M103.24,169.24h29.08v-136h-17.579
	v71.556c0,4.261-3.467,7.728-7.728,7.728h-3.774V169.24z M70.16,169.24h29.08v-56.717h-3.774c-4.261,0-7.728-3.467-7.728-7.728
	V33.24H70.16V169.24z M37.08,169.24h29.08v-136H48.582v71.556c0,4.261-3.467,7.728-7.728,7.728H37.08V169.24z M4,159.5
	c0,5.371,4.37,9.74,9.74,9.74h19.34v-56.717h-3.774c-4.261,0-7.727-3.467-7.727-7.728V33.24H13.74C8.37,33.24,4,37.609,4,42.98
	V159.5z M157.898,104.795c0,2.055,1.672,3.728,3.728,3.728h11.548c2.055,0,3.727-1.672,3.727-3.728V33.24H164.73v68
	c0,1.104-0.896,2-2,2s-2-0.896-2-2v-68h-2.832V104.795z M91.738,104.795c0,2.055,1.672,3.728,3.728,3.728h11.548
	c2.055,0,3.728-1.672,3.728-3.728V33.24H98.73v68c0,1.104-0.896,2-2,2s-2-0.896-2-2v-68h-2.992V104.795z M25.579,104.795
	c0,2.055,1.672,3.728,3.727,3.728h11.548c2.055,0,3.728-1.672,3.728-3.728V33.24H32.73v68c0,1.104-0.896,2-2,2s-2-0.896-2-2v-68
	h-3.151V104.795z"/>
<g>
</g>
<g>
</g>
<g>
</g>
<g>
</g>
<g>
</g>
<g>
</g>
<g>
</g>
<g>
</g>
<g>
</g>
<g>
</g>
<g>
</g>
<g>
</g>
<g>
</g>
<g>
</g>
<g>
</g>
</svg>
