<svg xmlns="http://www.w3.org/2000/svg" xmlns:xlink="http://www.w3.org/1999/xlink" version="1.1" x="0px" y="0px" viewBox="0 0 90 90" style="enable-background:new 0 0 90 90;" xml:space="preserve"><g><circle cx="31.5" cy="79.1" r="1.2"></circle><path d="M81.1,50.9C81.1,50.9,81.1,50.9,81.1,50.9c-0.3-0.4-2.6-2.2-4.6-3.1c0.6-0.6,0.9-1.4,0.9-2.3V43c0.8-0.3,1.8-1.5,1.8-2.8   c0-1.4-1-2.5-1.8-2.8v-1.6c0-1.8-1.5-3.3-3.3-3.3c0.1,0,0.2,0,0.3-0.1c0.9-0.2,1.5-1.1,1.4-2c-0.1-1-0.9-1.7-1.8-1.8   c0-5.9-0.4-13.4-5.6-18.5C63.8,5.4,57.2,3.5,45,3.5S26.2,5.4,21.5,10c-5.2,5.1-5.6,12.6-5.6,18.5c-1,0.1-1.7,0.8-1.8,1.8   c-0.1,0.9,0.5,1.8,1.4,2c0.1,0,0.2,0,0.3,0.1c-1.8,0-3.3,1.5-3.3,3.3v1.6c-0.8,0.3-1.8,1.4-1.8,2.8c0,1.3,1,2.5,1.8,2.8v2.5   c0,0.9,0.3,1.7,0.9,2.3c-1.9,0.9-4.2,2.7-4.6,3.1c0,0,0,0,0,0c-0.5,0.5-3.3,3.2-1.8,9.6c0.9,3.5,4,6.8,7.3,8.7   c0.8,0.5,0.9,2.4,0.9,2.6c0,2.6,3.4,10.6,8.2,12.5c8.5,3.5,14.1,1,15.1-1.4c0.9-2,3.2-4.1,6.4-4.2c3.2,0,5.6,2.1,6.4,4.2   c1,2.4,6.6,4.9,15.1,1.4c4.8-2,8.2-9.9,8.2-12.5c0-0.3,0.1-2.2,0.9-2.6c3.3-2,6.4-5.2,7.3-8.7C84.5,54.1,81.6,51.4,81.1,50.9z    M74.1,34.6c0.6,0,1.1,0.5,1.1,1.1v9.7c0,0.6-0.6,1.1-1.2,1.1c0,0-0.7-7.8-0.8-12H74.1z M23.1,11.6C27.3,7.5,33.9,5.8,45,5.8   s17.7,1.7,21.9,5.9c3.3,3.3,4.4,7.5,4.8,12.4c-0.7,0.9-0.6,4.6-0.6,4.6H18.9c0,0,0.1-3.7-0.6-4.6C18.7,19.1,19.8,14.9,23.1,11.6z    M65.2,39.7c-0.7,0-1.5-0.1-2.3-0.2c1.1-0.8,3.9-3.2,3.8-6.7c0.4,0,0.8,0,1.2-0.1C68.1,36.1,66.3,38.5,65.2,39.7z M27.1,39.5   c-0.8,0.2-1.6,0.3-2.3,0.2c-1.1-1.2-2.9-3.6-2.6-7c0.4,0,0.8,0,1.2,0.1C23.2,36.3,26,38.7,27.1,39.5z M17.2,51   c0.4-2.8,0.8-5.1,1.1-8c0.2,0.4,0.5,0.9,0.8,1.4C17.9,49,21.7,53,21.7,53s2.8-4.2,5.5-5c4.8-1.3,8.4-6.1,8.7-7.1   c-2.9,2-9.9,5.8-12.4,5.7c-1.1,0-4.6-5.5-4.7-6.8c-0.1-2.5-0.1-4.2,0-7.2c0.4,0,1,0.1,1.5,0.1c0,0.4-0.1,0.7-0.1,1.1   c0,4.3,2.7,7.5,3.9,7.6c5.6,0.6,13.5-4.8,17.1-8.1c1.2,0,2.5,0,3.7,0c0,0,0,0,0,0c0,0,0,0,0,0c1.3,0,2.5,0,3.7,0   c3.5,3.3,11.5,8.6,17.1,8.1c1.2-0.1,3.9-3.3,3.9-7.6c0-0.4,0-0.7-0.1-1.1c0.5,0,1.1-0.1,1.5-0.1c0.1,3,0.2,4.8,0,7.2   c-0.1,1.3-3.6,6.7-4.7,6.8c-2.5,0.1-9.5-3.6-12.4-5.7c0.3,1,3.9,5.8,8.7,7.1c2.8,0.8,5.5,5,5.5,5s3.8-4,2.6-8.6   c0.3-0.5,0.5-1,0.8-1.4c0.3,3,0.7,5.3,1.1,8c0.6,3.4-3.7,8.9-5.9,11.2c-0.5-0.2-4.3-1.2-5.7-2C55.2,57,47.4,48.1,45,48.1v0   c0,0,0,0,0,0c0,0,0,0,0,0v0c-2.4,0-10.2,8.9-16.2,12.1c-1.4,0.9-5.1,1.8-5.7,2C20.9,59.9,16.6,54.4,17.2,51z M14.7,35.7   c0-0.6,0.5-1.1,1.1-1.1h0.8c-0.1,4.2-0.8,12-0.8,12c-0.6,0-1.2-0.5-1.2-1.1V35.7z M13,65.5c-2.2-1.7-4.4-4.7-4-10.1   c0.2-2.3,3.2-4.9,6.5-6.6c-2.2,6.4,3.8,12.6,5.5,14.5C18.9,64.7,15.8,67.6,13,65.5z M33.1,80.6c-2.2,2.1-6.6-1.3-7.2-1.9   c-0.5-0.6-1.6-2.6,0.1-4.3c1.7-1.7,4-0.7,4.5-0.5C31.3,74.2,35.3,78.4,33.1,80.6z M64.1,78.7c-0.5,0.6-4.9,4.1-7.2,1.9   c-2.3-2.2,1.8-6.4,2.5-6.7c0.5-0.2,2.8-1.2,4.5,0.5C65.7,76.1,64.6,78.1,64.1,78.7z M67.7,81.3c0.6-1.8,1.2-4.1,0.4-6.1   c-0.6-1.6-2-2.7-4-3.2c-6.6-1.7-12.7,4.7-13.4,4.5v-7.5c0-0.6-0.5-1.1-1.1-1.1c-0.6,0-1.1,0.5-1.1,1.1v-1.7c0-0.6-0.5-1.1-1.1-1.1   c-0.6,0-1.1,0.5-1.1,1.1v-1c0-0.6-0.5-1.1-1.1-1.1v0c0,0,0,0,0,0c0,0,0,0,0,0v0c-0.6,0-1.1,0.5-1.1,1.1v1c0-0.6-0.5-1.1-1.1-1.1   c-0.6,0-1.1,0.5-1.1,1.1v1.7c0-0.6-0.5-1.1-1.1-1.1c-0.6,0-1.1,0.5-1.1,1.1v7.5c-0.8,0.1-6.8-6.2-13.4-4.5c-2,0.5-3.4,1.6-4,3.2   c-0.8,2-0.3,4.3,0.4,6.1c-2.7-2.3-4.8-8.2-4.8-9.3c0-1.3,1.9-6.8,7.8-8c3.3-0.7,6.4-2.7,9.3-4.6c3.5-2.3,6.9-4.4,10.4-4.4   c3.5,0,6.8,2.2,10.4,4.4c3,1.9,6,3.9,9.3,4.6c5.8,1.3,7.8,6.7,7.8,8C72.5,73.1,70.4,79,67.7,81.3z M77,65.5c-2.8,2.1-5.9-0.8-8-2.2   c1.7-1.9,7.7-8.1,5.5-14.5c3.3,1.7,6.3,4.2,6.5,6.6C81.4,60.8,79.2,63.7,77,65.5z"></path><path d="M49.2,39c0,0-2.1-2.1-4.2-2.1c-2.1,0-4.2,2.1-4.2,2.1s2.5-0.8,4.2-0.8C46.7,38.2,49.2,39,49.2,39z"></path><circle cx="58.5" cy="79.1" r="1.2"></circle></g></svg>